PathFileType	4	(X/Y/Z)	C:/Users/opensim2020/Desktop/walking_exp_matlab/subject02_walking11_straight_02.trc																																																																																																																												
DataRate	CameraRate	NumFrames	NumMarkers	Units	OrigDataRate	OrigDataStartFrame	OrigNumFrames																																																																																																																								
100	100	4	42	mm	100	1749	230																																																																																																																								
Frame#	Time	LFHD			RFHD			LBHD			RBHD			C7			T10			CLAV			STRN			RBAK			LSHO			LUPA			LELB			LFRM			LWRA			LWRB			LFIN			RSHO			RUPA			RELB			RFRM			RWRA			RWRB			RFIN			LASI			RASI			LPSI			RPSI			LTHI			LKNE			LTIB			LANK			LHEE			LTOE			RTHI			RKNE			RTIB			RANK			RHEE			RTOE			*39			*40			*41		
		X1	Y1	Z1	X2	Y2	Z2	X3	Y3	Z3	X4	Y4	Z4	X5	Y5	Z5	X6	Y6	Z6	X7	Y7	Z7	X8	Y8	Z8	X9	Y9	Z9	X10	Y10	Z10	X11	Y11	Z11	X12	Y12	Z12	X13	Y13	Z13	X14	Y14	Z14	X15	Y15	Z15	X16	Y16	Z16	X17	Y17	Z17	X18	Y18	Z18	X19	Y19	Z19	X20	Y20	Z20	X21	Y21	Z21	X22	Y22	Z22	X23	Y23	Z23	X24	Y24	Z24	X25	Y25	Z25	X26	Y26	Z26	X27	Y27	Z27	X28	Y28	Z28	X29	Y29	Z29	X30	Y30	Z30	X31	Y31	Z31	X32	Y32	Z32	X33	Y33	Z33	X34	Y34	Z34	X35	Y35	Z35	X36	Y36	Z36	X37	Y37	Z37	X38	Y38	Z38	X39	Y39	Z39	X40	Y40	Z40	X41	Y41	Z41	X42	Y42	Z42
																																																																																																																															
116	1.15	-3.5079	1722.62634	1028.54236	-8.53166	1696.3634	1169.77844	-142.03612	1664.50146	1014.29633	-159.07759	1638.18103	1155.70618	-206.01755	1519.42236	1087.73633	-269.6788	1244.3999	1097.50818	-70.78428	1443.4895	1064.77148	-24.90424	1270.64746	1080.13098	-265.95752	1349.67297	1160.66003	-157.46616	1486.11877	903.31274	-222.69745	1295.96008	830.57642	-264.01212	1161.93774	825.97711	-298.854	1036.66492	807.01794	-278.64249	897.32239	816.23334	-328.66232	916.60754	798.69263	-332.47989	850.16449	788.92346	-112.16089	1486.4856	1265.86682	-100.03378	1294.52698	1355.02222	-45.98792	1156.25586	1373.12451	25.67711	1057.89856	1380.5354	114.02872	960.62878	1348.03479	77.39793	938.36462	1384.974	136.46968	897.08081	1380.04456	-34.01929	983.24316	960.02441	-43.67608	959.9408	1219.17664	-248.07025	1023.56616	1036.63562	-255.60713	1023.00195	1150.06335	-41.09826	685.00232	875.60663	-2.63524	486.66284	901.39325	5.92724	293.37656	894.72345	90.92751	83.53613	903.76318	74.72707	48.72065	960.63	247.29977	80.30672	875.01611	-180.84026	665.18616	1267.32532	-231.85054	460.58389	1225.1084	-324.17001	294.93872	1225.00085	-391.39389	112.83749	1184.52625	-433.7944	65.61236	1126.09924	-252.62431	37.57507	1209.8999	-98.24152	1794.86145	1120.78882	-2845.13184	1034.16589	3360.22534	NaN	NaN	NaN
117	1.16	3.83998	1722.05493	1025.41296	-0.81004	1696.20081	1167.13733	-134.12143	1663.64978	1011.6217	-151.27878	1637.71008	1153.18042	-198.00313	1518.73572	1085.46838	-261.11914	1243.58228	1095.18115	-62.57087	1443.05579	1062.83606	-16.44065	1270.27942	1078.3374	-257.90344	1348.91064	1158.42908	-149.08829	1485.43042	901.20203	-214.26787	1295.18591	828.47455	-255.26646	1161.29529	824.02692	-290.13104	1035.78394	805.10211	-270.75183	896.81653	814.04004	-320.55804	916.0946	796.52802	-324.4935	849.53473	786.89215	-104.41447	1485.92139	1263.68774	-93.10204	1294.09375	1353.04651	-39.75035	1155.45654	1370.92822	32.01336	1057.07141	1378.07336	120.47232	960.14142	1345.06384	83.88964	937.59283	1381.97131	143.07884	896.41766	1376.91174	-24.89108	983.13947	957.98865	-35.27089	959.31555	1217.15564	-239.09386	1022.94348	1034.21118	-246.98085	1022.33099	1147.47546	-31.9048	684.4165	873.61578	5.55364	485.8652	900.00024	12.16665	292.34372	893.54041	94.55373	81.48135	903.69519	77.50703	46.89937	960.05273	251.11838	77.28999	876.09698	-174.44673	665.17603	1266.06067	-226.55518	460.75793	1224.54492	-320.93259	296.2402	1224.68774	-390.34854	114.92307	1184.96643	-433.08783	68.2117	1126.59058	-252.47363	37.63919	1210.13721	-90.72874	1794.65808	1117.97241	-2845.17896	1034.28638	3360.25659	NaN	NaN	NaN
118	1.17	11.70865	1721.7583	1022.90472	7.02017	1695.96802	1164.64038	-126.32565	1662.94482	1009.12061	-143.4287	1637.40515	1150.6272	-189.99547	1518.02502	1083.16736	-252.43964	1242.65393	1092.68164	-54.34934	1442.60303	1060.75769	-7.71343	1270.01929	1076.33508	-249.74847	1347.9408	1155.89417	-140.68419	1484.7417	898.99664	-205.40681	1294.29272	826.19891	-246.31607	1160.47449	821.83331	-281.04977	1035.03955	802.56897	-262.37943	895.94543	811.80798	-312.04315	915.49707	794.19269	-316.14249	848.96918	784.51312	-96.78888	1485.45105	1261.53186	-86.14806	1293.67273	1351.0033	-33.63277	1154.68909	1368.69153	38.09325	1056.19006	1375.52527	126.74422	959.43481	1342.31921	90.08687	936.65558	1378.92419	149.28	895.53046	1373.77466	-15.44084	983.20111	955.73114	-26.74213	958.66541	1214.98755	-229.87781	1022.34808	1031.55396	-238.20621	1021.69604	1144.75134	-22.82688	683.74591	871.70813	13.38799	484.92953	898.53711	17.94959	291.22861	892.38489	97.66312	79.32774	903.50952	79.96165	44.61929	960.01349	254.31099	74.07716	877.47229	-167.84366	665.20203	1264.77673	-220.91241	460.98517	1224.09387	-317.39648	297.57895	1224.38867	-389.19888	117.08063	1185.3877	-432.48718	71.00662	1126.93079	-252.29922	37.67976	1210.49854	-83.07924	1794.0658	1115.01111	-2845.86963	1034.37	3357.53662	NaN	NaN	NaN
119	1.18	19.31299	1721.0249	1020.05383	14.63192	1695.91919	1161.88464	-118.49931	1662.32043	1006.56696	-135.65163	1636.95105	1148.0188	-181.88144	1517.27576	1080.72168	-243.653	1241.70105	1090.08264	-46.04062	1442.19836	1058.63599	0.93627	1269.71948	1074.31604	-241.45979	1346.98352	1153.32422	-132.12674	1483.99084	896.77448	-196.49612	1293.5293	823.90015	-237.21902	1159.53076	819.52863	-272.45279	1034.56494	800.39087	-253.35376	894.91492	809.56171	-303.14734	914.72614	791.76648	-307.36179	848.30731	782.16742	-89.15148	1484.95996	1259.28931	-79.23488	1293.24634	1348.95032	-27.58116	1153.65552	1366.10083	44.04628	1055.1759	1372.93042	132.61073	958.51361	1339.37781	95.98928	935.60925	1375.99121	155.14247	894.44794	1370.59619	-5.75226	983.19305	953.35559	-18.06743	958.00165	1212.68103	-220.48056	1021.6629	1028.70789	-229.11299	1020.92065	1141.77576	-13.48845	683.04041	869.76727	21.00169	483.78632	897.02344	23.34316	289.87881	891.05957	100.13864	76.73261	903.4682	81.13274	42.15406	959.58984	256.97189	70.58283	879.12518	-160.93898	665.24976	1263.36597	-214.73604	461.19946	1223.58044	-313.46869	299.09216	1224.15149	-387.84659	119.51579	1185.95117	-431.66595	74.02058	1127.51147	-252.05128	37.78914	1210.76257	-75.47173	1793.59082	1112	-2845.82764	1034.27625	3357.4751	NaN	NaN	NaN
